<?xml version="1.0" encoding="UTF-8" standalone="no"?>
<!-- Uploaded to: SVG Repo, www.svgrepo.com, Generator: SVG Repo Mixer Tools -->
<svg width="800px" height="800px" viewBox="0 0 64 64" version="1.1" xmlns="http://www.w3.org/2000/svg" xmlns:xlink="http://www.w3.org/1999/xlink">
    
    <title>cle-wash-basin</title>
    <desc>Created with Sketch.</desc>
    <defs>

</defs>
    <g id="General" stroke="none" stroke-width="1" fill="none" fill-rule="evenodd">
        <g id="SLICES-64px" transform="translate(-630.000000, -100.000000)">

</g>
        <g id="ICONS" transform="translate(-625.000000, -95.000000)">
            <g id="cle-wash-basin" transform="translate(630.000000, 102.000000)">
                <path d="M0,34 L52,34 L52,32 C52,30.896 51.104,30 50,30 L2,30 C0.896,30 0,30.896 0,32 L0,34 Z" id="Fill-515" fill="#CDCCD6">

</path>
                <path d="M50,30 L45,30 C46.104,30 47,30.896 47,32 L47,34 L52,34 L52,32 C52,30.896 51.104,30 50,30" id="Fill-516" fill-opacity="0.25" fill="#6C6984">

</path>
                <path d="M2,34 L7.088,49.265 C7.633,50.898 9.161,52 10.883,52 L41.117,52 C42.839,52 44.367,50.898 44.912,49.265 L50,34 L2,34 Z" id="Fill-517" fill="#CDCCD6">

</path>
                <polygon id="Fill-518" fill-opacity="0.25" fill="#6C6984" points="49 37 50 34 2 34 3 37">

</polygon>
                <path d="M40,24 C38.202,24 36.589,24.791 35.489,26.043 C34.804,24.824 33.499,24 32,24 C30.805,24 29.732,24.524 29,25.354 C28.267,24.524 27.195,24 26,24 C25.261,24 24.568,24.201 23.974,24.551 C23.718,22.029 21.589,20 19,20 C16.371,20 14.215,22.029 14.015,24.607 C13.262,24.22 12.406,24 11.5,24 C8.462,24 6,26.463 6,29.5 C6,29.669 6.008,29.836 6.022,30.002 L46,30 C46,26.687 43.313,24 40,24" id="Fill-519" fill="#FFFFFF">

</path>
                <path d="M10.0884,24.1895 C9.8884,24.2425 9.6924,24.3055 9.5014,24.3795 C9.6764,24.4495 9.8494,24.5225 10.0154,24.6075 C10.0264,24.4645 10.0654,24.3305 10.0884,24.1895" id="Fill-520" fill="#FFFFFF">

</path>
                <path d="M19.9736,24.5508 C20.5676,24.2008 21.2606,23.9998 21.9996,23.9998 C22.7226,23.9998 23.3876,24.2088 23.9726,24.5448 C23.7136,22.0268 21.5866,19.9998 18.9996,19.9998 C18.2816,19.9998 17.6046,20.1628 16.9876,20.4358 C18.6076,21.1588 19.7876,22.7188 19.9736,24.5508" id="Fill-521" fill-opacity="0.25" fill="#6C6984">

</path>
                <path d="M40,24 C39.296,24 38.623,24.125 37.996,24.348 C40.327,25.17 42,27.387 42,30 L46,30 C46,26.687 43.313,24 40,24" id="Fill-522" fill-opacity="0.25" fill="#6C6984">

</path>
                <path d="M46,6 C46,9.313 43.313,12 40,12 C36.687,12 34,9.313 34,6 C34,2.687 36.687,0 40,0 C43.313,0 46,2.687 46,6" id="Fill-523" fill="#CDCCD6">

</path>
                <path d="M32,17 C32,15.343 30.657,14 29,14 C27.343,14 26,15.343 26,17 C26,18.657 27.343,20 29,20 C30.657,20 32,18.657 32,17" id="Fill-524" fill="#CDCCD6">

</path>
                <path d="M20,9 C20,6.238 17.761,4 15,4 C12.239,4 10,6.238 10,9 C10,11.762 12.239,14 15,14 C17.761,14 20,11.762 20,9" id="Fill-525" fill="#CDCCD6">

</path>
                <path d="M0,34 L52,34 L52,32 C52,30.896 51.104,30 50,30 L2,30 C0.896,30 0,30.896 0,32 L0,34 Z" id="Stroke-526" stroke="#676883" stroke-width="2" stroke-linecap="round" stroke-linejoin="round">

</path>
                <path d="M2,34 L7.088,49.265 C7.633,50.898 9.161,52 10.883,52 L41.117,52 C42.839,52 44.367,50.898 44.912,49.265 L50,34" id="Stroke-527" stroke="#676883" stroke-width="2" stroke-linecap="round" stroke-linejoin="round">

</path>
                <path d="M46,30 C46,26.687 43.313,24 40,24 C38.202,24 36.589,24.791 35.489,26.044 L35.491,26.046 C34.806,24.825 33.5,24 32,24 C30.805,24 29.732,24.524 29,25.354 L29.005,25.359 C28.272,24.526 27.197,24 26,24 C25.261,24 24.568,24.2 23.974,24.551 C23.718,22.029 21.589,20 19,20 C16.37,20 14.214,22.03 14.015,24.609 L14.019,24.609 C13.264,24.22 12.408,24 11.5,24 C8.462,24 6,26.462 6,29.5 C6,29.669 6.008,29.836 6.022,30.002" id="Stroke-528" stroke="#676883" stroke-width="2" stroke-linecap="round" stroke-linejoin="round">

</path>
                <path d="M46,6 C46,9.313 43.313,12 40,12 C36.687,12 34,9.313 34,6 C34,2.687 36.687,0 40,0 C43.313,0 46,2.687 46,6 Z" id="Stroke-529" stroke="#676883" stroke-width="2" stroke-linecap="round" stroke-linejoin="round">

</path>
                <path d="M32,17 C32,15.343 30.657,14 29,14 C27.343,14 26,15.343 26,17 C26,18.657 27.343,20 29,20 C30.657,20 32,18.657 32,17 Z" id="Stroke-530" stroke="#676883" stroke-width="2" stroke-linecap="round" stroke-linejoin="round">

</path>
                <path d="M20,9 C20,6.238 17.761,4 15,4 C12.239,4 10,6.238 10,9 C10,11.762 12.239,14 15,14 C17.761,14 20,11.762 20,9 Z" id="Stroke-531" stroke="#676883" stroke-width="2" stroke-linecap="round" stroke-linejoin="round">

</path>
            </g>
        </g>
    </g>
</svg>