<?xml version="1.0" encoding="UTF-8" standalone="no"?>
<!-- Uploaded to: SVG Repo, www.svgrepo.com, Generator: SVG Repo Mixer Tools -->
<svg width="800px" height="800px" viewBox="0 0 64 64" version="1.1" xmlns="http://www.w3.org/2000/svg" xmlns:xlink="http://www.w3.org/1999/xlink">
    
    <title>cld-cloud-wifi</title>
    <desc>Created with Sketch.</desc>
    <defs>

</defs>
    <g id="General" stroke="none" stroke-width="1" fill="none" fill-rule="evenodd">
        <g id="SLICES-64px" transform="translate(-450.000000, -200.000000)">

</g>
        <g id="ICONS" transform="translate(-445.000000, -195.000000)">
            <g id="cld-cloud-wifi" transform="translate(454.000000, 202.000000)">
                <path d="M39.9912,12.5088 C43.4912,13.7408 46.0002,17.0778 46.0002,20.9998 C46.0002,25.9708 41.9702,29.9998 37.0002,29.9998 L8.0002,29.9998 C3.5822,29.9998 0.0002,26.4178 0.0002,21.9998 C0.0002,18.1298 2.7492,14.9018 6.4002,14.1598 L6.4022,14.1658 C6.1422,13.4938 6.0002,12.7638 6.0002,11.9998 C6.0002,8.6868 8.6862,5.9998 12.0002,5.9998 C13.8602,5.9998 15.5232,6.8478 16.6242,8.1768 L16.6222,8.1758 C18.2192,3.4238 22.7102,-0.0002 28.0002,-0.0002 C34.6272,-0.0002 40.0002,5.3728 40.0002,11.9998 C40.0002,12.1698 39.9962,12.3398 39.9892,12.5088 L39.9912,12.5088 Z" id="Fill-759" fill="#FFFFFF">

</path>
                <path d="M11,9 C13.953,9 16.526,10.604 17.912,12.985 C17.966,12.664 18,12.336 18,12 C18,8.687 15.313,6 12,6 C9.154,6 6.777,7.982 6.16,10.641 C7.505,9.615 9.179,9 11,9" id="Fill-760" fill-opacity="0.25" fill="#6C6984">

</path>
                <path d="M39.9912,12.5088 L39.9892,12.5088 C39.9962,12.3398 40.0002,12.1698 40.0002,11.9998 C40.0002,5.3728 34.6272,-0.0002 28.0002,-0.0002 C27.4632,-0.0002 26.9362,0.0438 26.4182,0.1128 C31.6322,0.8338 35.6522,5.3378 35.6522,10.7998 C35.6522,10.9528 35.6482,11.1058 35.6422,11.2578 L35.6442,11.2578 C38.7632,12.3668 41.0002,15.3698 41.0002,18.9008 C41.0002,23.3728 37.4082,26.9998 32.9782,26.9998 L7.1312,26.9998 C3.5532,26.9998 0.5992,24.3358 0.0872,20.8678 C0.0342,21.2378 0.0002,21.6148 0.0002,21.9998 C0.0002,26.4178 3.5822,29.9998 8.0002,29.9998 L37.0002,29.9998 C41.9702,29.9998 46.0002,25.9708 46.0002,20.9998 C46.0002,17.0778 43.4912,13.7408 39.9912,12.5088" id="Fill-761" fill-opacity="0.25" fill="#6C6984">

</path>
                <path d="M39.9912,12.5088 C43.4912,13.7408 46.0002,17.0778 46.0002,20.9998 C46.0002,25.9708 41.9702,29.9998 37.0002,29.9998 L8.0002,29.9998 C3.5822,29.9998 0.0002,26.4178 0.0002,21.9998 C0.0002,18.1298 2.7492,14.9018 6.4002,14.1598 L6.4022,14.1658 C6.1422,13.4938 6.0002,12.7638 6.0002,11.9998 C6.0002,8.6868 8.6862,5.9998 12.0002,5.9998 C13.8602,5.9998 15.5232,6.8478 16.6242,8.1768 L16.6222,8.1758 C18.2192,3.4238 22.7102,-0.0002 28.0002,-0.0002 C34.6272,-0.0002 40.0002,5.3728 40.0002,11.9998 C40.0002,12.1698 39.9962,12.3398 39.9892,12.5088 L39.9912,12.5088 Z" id="Stroke-762" stroke="#676883" stroke-width="2" stroke-linecap="round" stroke-linejoin="round">

</path>
                <path d="M35.8184,38.6367 C32.5534,41.9477 28.0164,43.9997 23.0004,43.9997 C18.0304,43.9997 13.5304,41.9857 10.2734,38.7277" id="Stroke-763" stroke="#676883" stroke-width="2" stroke-linecap="round" stroke-linejoin="round">

</path>
                <path d="M31.4854,34.4854 C26.7984,39.1724 19.2014,39.1724 14.5144,34.4854" id="Stroke-764" stroke="#676883" stroke-width="2" stroke-linecap="round" stroke-linejoin="round">

</path>
                <path d="M6.7363,43.2637 C15.7183,52.2447 30.2813,52.2447 39.2633,43.2637" id="Stroke-765" stroke="#676883" stroke-width="2" stroke-linecap="round" stroke-linejoin="round">

</path>
            </g>
        </g>
    </g>
</svg>